Coordinates
version=1
nRows=21
nColumns=22
inDegrees=yes

Units are S.I. units (second, meters, Newtons, ...)
If the header above contains a line with 'inDegrees', this indicates whether rotational values are in degrees (yes) or radians (no).

endheader
time	pelvis_tilt	pelvis_list	pelvis_rotation	pelvis_tx	pelvis_ty	pelvis_tz	hip_flexion_r	hip_adduction_r	hip_rotation_r	knee_angle_r	ankle_angle_r	subtalar_angle_r	hip_flexion_l	hip_adduction_l	hip_rotation_l	knee_angle_l	ankle_angle_l	subtalar_angle_l	lumbar_extension	lumbar_bending	lumbar_rotation
      0.01000000	     -1.46416268	      1.32864086	    -25.83470287	     -0.96169592	      0.90358674	     -0.37904188	     -7.46888452	     -0.30738932	     -0.12056157	      6.16250928	     13.94422482	      2.56145804	      0.66730377	     -2.00968569	    -15.57523296	    -10.17656501	     14.08390536	      4.41227247	     -2.16698604	     -2.86237644	      4.53738032
      0.02000000	     -1.46170441	      1.32908424	    -25.83039863	     -0.96170270	      0.90359350	     -0.37904774	     -7.47268539	     -0.31027916	     -0.11944938	      6.16035791	     13.94205002	      2.56198106	      0.66843821	     -2.00821498	    -15.57558407	    -10.17943587	     14.08028929	      4.41287113	     -2.16791851	     -2.85886717	      4.54016082
      0.03000000	     -1.45323927	      1.32478000	    -25.82529913	     -0.96175059	      0.90361225	     -0.37905069	     -7.48348889	     -0.30980789	     -0.11156111	      6.16266693	     13.92025885	      2.56556987	      0.67692880	     -2.01331476	    -15.56757092	    -10.20919670	     14.06239224	      4.41652542	     -2.18595613	     -2.85747369	      4.55068086
      0.04000000	     -1.45174339	      1.32451075	    -25.82043460	     -0.96175457	      0.90361664	     -0.37905372	     -7.48742085	     -0.31209933	     -0.10953218	      6.16248081	     13.91640489	      2.56632579	      0.67843037	     -2.01336735	    -15.56775513	    -10.21255754	     14.06138646	      4.41726211	     -2.18487630	     -2.85150096	      4.55135564
      0.05000000	     -1.44970644	      1.31597531	    -25.80908552	     -0.96180161	      0.90362615	     -0.37906287	     -7.50337689	     -0.30511518	     -0.09379900	      6.18170477	     13.88060091	      2.57367848	      0.69849497	     -2.02837102	    -15.55832160	    -10.25444642	     14.05601680	      4.42350071	     -2.19917395	     -2.84242182	      4.54702279
      0.06000000	     -1.44932897	      1.31662786	    -25.80531858	     -0.96181219	      0.90362670	     -0.37906891	     -7.50489240	     -0.30727652	     -0.09366111	      6.18261875	     13.87870223	      2.57429195	      0.70038456	     -2.02786289	    -15.55977901	    -10.25423010	     14.05681271	      4.42408680	     -2.19845254	     -2.83729407	      4.54645344
      0.07000000	     -1.44845799	      1.31745493	    -25.80480479	     -0.96183336	      0.90362705	     -0.37905776	     -7.50513268	     -0.30732241	     -0.09366728	      6.18285391	     13.87846264	      2.57439703	      0.70112720	     -2.02813304	    -15.55990126	    -10.25405988	     14.05691226	      4.42416303	     -2.19841671	     -2.83640893	      4.54632776
      0.08000000	     -1.44879263	      1.31921184	    -25.79849524	     -0.96184919	      0.90362637	     -0.37908407	     -7.50519838	     -0.31007475	     -0.09442600	      6.18626499	     13.87700912	      2.57539903	      0.70521914	     -2.02605717	    -15.56178845	    -10.25361459	     14.05763045	      4.42475565	     -2.20115829	     -2.83015293	      4.54490307
      0.09000000	     -1.44989773	      1.32197437	    -25.79125651	     -0.96186660	      0.90362367	     -0.37910286	     -7.50577259	     -0.31153646	     -0.09883833	      6.19348101	     13.87559385	      2.57766387	      0.71023659	     -2.02426121	    -15.56452445	    -10.25270504	     14.05882733	      4.42576951	     -2.20215313	     -2.82682575	      4.53860241
      0.10000000	     -1.44894354	      1.32294030	    -25.79090949	     -0.96188415	      0.90362242	     -0.37909635	     -7.50568571	     -0.31129654	     -0.09913831	      6.19380297	     13.87559622	      2.57777686	      0.71036370	     -2.02450907	    -15.56457695	    -10.25255291	     14.05887087	      4.42580472	     -2.20176428	     -2.82645853	      4.53831419
      0.11000000	     -1.44954934	      1.32637385	    -25.78357983	     -0.96189135	      0.90361951	     -0.37912291	     -7.50526492	     -0.31430590	     -0.10578447	      6.19828779	     13.87684819	      2.57940328	      0.71305681	     -2.02020185	    -15.56711167	    -10.24761337	     14.05941534	      4.42614201	     -2.20204008	     -2.82219365	      4.53500324
      0.12000000	     -1.44872025	      1.32710531	    -25.78339632	     -0.96190439	      0.90362100	     -0.37911612	     -7.50526966	     -0.31413800	     -0.10614665	      6.19847253	     13.87693938	      2.57948542	      0.71325707	     -2.02033231	    -15.56710054	    -10.24736022	     14.05942639	      4.42614801	     -2.20170495	     -2.82197003	      4.53485338
      0.13000000	     -1.44850255	      1.34119473	    -25.76641535	     -0.96186637	      0.90360580	     -0.37913183	     -7.51168174	     -0.32369137	     -0.15632652	      6.21656831	     13.89114527	      2.59030624	      0.71657878	     -2.00435222	    -15.56027340	    -10.23778792	     14.05840194	      4.42599551	     -2.18830205	     -2.83360524	      4.52076905
      0.14000000	     -1.44761522	      1.34163190	    -25.76605918	     -0.96187502	      0.90360692	     -0.37912689	     -7.51172112	     -0.32360519	     -0.15631996	      6.21639358	     13.89117598	      2.59040656	      0.71699790	     -2.00411442	    -15.56004298	    -10.23776225	     14.05835141	      4.42598653	     -2.18829275	     -2.83304710	      4.52085145
      0.15000000	     -1.44551011	      1.34292643	    -25.76024790	     -0.96186550	      0.90360687	     -0.37916093	     -7.51289787	     -0.32827013	     -0.15736038	      6.21459058	     13.89197682	      2.59179728	      0.71911437	     -1.99931064	    -15.55615669	    -10.24110898	     14.05745517	      4.42582634	     -2.19028786	     -2.82638021	      4.52387619
      0.16000000	     -1.44025330	      1.34601779	    -25.75196955	     -0.96187994	      0.90360875	     -0.37917928	     -7.51695983	     -0.33281900	     -0.16823241	      6.21581176	     13.89855288	      2.59989160	      0.72653529	     -1.99476855	    -15.53095122	    -10.25720097	     14.05304716	      4.42429838	     -2.19844438	     -2.83326440	      4.53307142
      0.17000000	     -1.44026618	      1.34602701	    -25.75190010	     -0.96188301	      0.90360605	     -0.37917938	     -7.51699478	     -0.33282218	     -0.16824284	      6.21579547	     13.89855870	      2.59990383	      0.72651971	     -1.99467702	    -15.53094907	    -10.25720190	     14.05304498	      4.42429513	     -2.19841930	     -2.83319329	      4.53307997
      0.18000000	     -1.43994120	      1.34712192	    -25.74571709	     -0.96186797	      0.90360426	     -0.37921367	     -7.51789740	     -0.33625791	     -0.16897083	      6.21567313	     13.89910130	      2.60071170	      0.72702472	     -1.99052004	    -15.53041424	    -10.25577443	     14.05311240	      4.42409062	     -2.19793186	     -2.82726182	      4.53506739
      0.19000000	     -1.44008671	      1.34707753	    -25.74561548	     -0.96186906	      0.90360041	     -0.37921730	     -7.51790366	     -0.33639374	     -0.16901082	      6.21569904	     13.89911709	      2.60073327	      0.72693625	     -1.99048021	    -15.53037660	    -10.25575174	     14.05311671	      4.42408354	     -2.19793838	     -2.82725305	      4.53510507
      0.20000000	     -1.44087408	      1.34830144	    -25.73900500	     -0.96185359	      0.90359653	     -0.37925300	     -7.51803676	     -0.34042142	     -0.17027637	      6.21688389	     13.89981942	      2.60165313	      0.72702930	     -1.98693992	    -15.52903087	    -10.25157181	     14.05359757	      4.42373904	     -2.19812144	     -2.82378753	      4.53765213
      0.21000000	     -1.44149076	      1.34810940	    -25.73879998	     -0.96184610	      0.90359443	     -0.37926289	     -7.51818385	     -0.34065911	     -0.17067034	      6.21717931	     13.89995045	      2.60184867	      0.72671744	     -1.98617924	    -15.52849867	    -10.25085842	     14.05367831	      4.42363478	     -2.19792468	     -2.82427626	      4.53775290
